<mxfile host="app.diagrams.net" modified="2024-06-13T14:00:38.946Z" agent="Mozilla/5.0 (Windows NT 10.0; Win64; x64) AppleWebKit/537.36 (KHTML, like Gecko) Chrome/125.0.0.0 Safari/537.36" etag="BkKoOHh3GPnC16IaUwSX" version="24.5.4" type="device">
  <diagram name="Page-1" id="j2Nt56YtFflyHRb6jEef">
    <mxGraphModel dx="1964" dy="615" grid="1" gridSize="10" guides="1" tooltips="1" connect="1" arrows="1" fold="1" page="1" pageScale="1" pageWidth="850" pageHeight="1100" math="0" shadow="0">
      <root>
        <mxCell id="0" />
        <mxCell id="1" parent="0" />
        <mxCell id="KuOeL_wX9S6xzsZXIeHA-8" value="" style="endArrow=none;html=1;rounded=0;entryX=0;entryY=0.5;entryDx=0;entryDy=0;exitX=0.75;exitY=0;exitDx=0;exitDy=0;" edge="1" parent="1" source="PGMSWHId7oX6WN4hm_oo-2" target="KuOeL_wX9S6xzsZXIeHA-7">
          <mxGeometry width="50" height="50" relative="1" as="geometry">
            <mxPoint x="322" y="661" as="sourcePoint" />
            <mxPoint x="420" y="620" as="targetPoint" />
          </mxGeometry>
        </mxCell>
        <mxCell id="x2ZdGeCnN24oB9wIgB-1-8" value="" style="endArrow=none;html=1;rounded=0;exitX=0;exitY=1;exitDx=0;exitDy=0;" parent="1" source="x2ZdGeCnN24oB9wIgB-1-3" edge="1">
          <mxGeometry relative="1" as="geometry">
            <mxPoint x="70" y="1200" as="sourcePoint" />
            <mxPoint x="10" y="1240" as="targetPoint" />
          </mxGeometry>
        </mxCell>
        <mxCell id="8EPMOKXkYQKO1uJK_nMX-32" value="" style="endArrow=none;html=1;rounded=0;exitX=0;exitY=0;exitDx=0;exitDy=0;" parent="1" source="8EPMOKXkYQKO1uJK_nMX-21" edge="1">
          <mxGeometry relative="1" as="geometry">
            <mxPoint x="60" y="1190" as="sourcePoint" />
            <mxPoint x="15" y="1241" as="targetPoint" />
          </mxGeometry>
        </mxCell>
        <mxCell id="x2ZdGeCnN24oB9wIgB-1-2" value="" style="endArrow=none;html=1;rounded=0;exitX=0.25;exitY=0;exitDx=0;exitDy=0;" parent="1" target="x2ZdGeCnN24oB9wIgB-1-1" edge="1">
          <mxGeometry width="50" height="50" relative="1" as="geometry">
            <mxPoint x="280" y="670" as="sourcePoint" />
            <mxPoint x="150" y="570" as="targetPoint" />
          </mxGeometry>
        </mxCell>
        <mxCell id="8EPMOKXkYQKO1uJK_nMX-54" value="" style="endArrow=none;html=1;rounded=0;entryX=0.5;entryY=0;entryDx=0;entryDy=0;" parent="1" source="PGMSWHId7oX6WN4hm_oo-6" target="8EPMOKXkYQKO1uJK_nMX-53" edge="1">
          <mxGeometry relative="1" as="geometry">
            <mxPoint x="-60" y="1008" as="sourcePoint" />
            <mxPoint x="-115" y="1026" as="targetPoint" />
          </mxGeometry>
        </mxCell>
        <mxCell id="8EPMOKXkYQKO1uJK_nMX-46" value="" style="endArrow=none;html=1;rounded=0;entryX=1;entryY=0.5;entryDx=0;entryDy=0;" parent="1" target="PGMSWHId7oX6WN4hm_oo-4" edge="1">
          <mxGeometry relative="1" as="geometry">
            <mxPoint x="105" y="969" as="sourcePoint" />
            <mxPoint x="60" y="1020" as="targetPoint" />
          </mxGeometry>
        </mxCell>
        <mxCell id="8EPMOKXkYQKO1uJK_nMX-45" value="" style="endArrow=none;html=1;rounded=0;" parent="1" source="8EPMOKXkYQKO1uJK_nMX-36" edge="1">
          <mxGeometry relative="1" as="geometry">
            <mxPoint x="65" y="930" as="sourcePoint" />
            <mxPoint x="20" y="981" as="targetPoint" />
          </mxGeometry>
        </mxCell>
        <mxCell id="8EPMOKXkYQKO1uJK_nMX-44" value="" style="endArrow=none;html=1;rounded=0;" parent="1" edge="1">
          <mxGeometry relative="1" as="geometry">
            <mxPoint x="95" y="1030" as="sourcePoint" />
            <mxPoint x="25" y="991" as="targetPoint" />
          </mxGeometry>
        </mxCell>
        <mxCell id="8EPMOKXkYQKO1uJK_nMX-48" value="" style="endArrow=none;html=1;rounded=0;entryX=1;entryY=0;entryDx=0;entryDy=0;" parent="1" target="8EPMOKXkYQKO1uJK_nMX-42" edge="1">
          <mxGeometry relative="1" as="geometry">
            <mxPoint x="-70" y="998" as="sourcePoint" />
            <mxPoint x="-115" y="1049" as="targetPoint" />
          </mxGeometry>
        </mxCell>
        <mxCell id="8EPMOKXkYQKO1uJK_nMX-43" value="" style="endArrow=none;html=1;rounded=0;" parent="1" edge="1">
          <mxGeometry relative="1" as="geometry">
            <mxPoint x="-87.5" y="890" as="sourcePoint" />
            <mxPoint x="-60" y="970" as="targetPoint" />
          </mxGeometry>
        </mxCell>
        <mxCell id="8EPMOKXkYQKO1uJK_nMX-30" value="" style="endArrow=none;html=1;rounded=0;exitX=0.5;exitY=1;exitDx=0;exitDy=0;" parent="1" source="PGMSWHId7oX6WN4hm_oo-6" target="8EPMOKXkYQKO1uJK_nMX-27" edge="1">
          <mxGeometry relative="1" as="geometry">
            <mxPoint x="-75" y="1244.5" as="sourcePoint" />
            <mxPoint x="-120" y="1295.5" as="targetPoint" />
          </mxGeometry>
        </mxCell>
        <mxCell id="8EPMOKXkYQKO1uJK_nMX-20" value="" style="endArrow=none;html=1;rounded=0;entryX=0;entryY=0.5;entryDx=0;entryDy=0;exitX=0.686;exitY=0.035;exitDx=0;exitDy=0;exitPerimeter=0;" parent="1" target="8EPMOKXkYQKO1uJK_nMX-18" edge="1" source="PGMSWHId7oX6WN4hm_oo-2">
          <mxGeometry width="50" height="50" relative="1" as="geometry">
            <mxPoint x="290" y="680" as="sourcePoint" />
            <mxPoint x="440" y="570" as="targetPoint" />
          </mxGeometry>
        </mxCell>
        <mxCell id="8EPMOKXkYQKO1uJK_nMX-19" value="" style="endArrow=none;html=1;rounded=0;exitX=0.25;exitY=0;exitDx=0;exitDy=0;" parent="1" edge="1">
          <mxGeometry width="50" height="50" relative="1" as="geometry">
            <mxPoint x="280" y="670" as="sourcePoint" />
            <mxPoint x="430" y="560" as="targetPoint" />
          </mxGeometry>
        </mxCell>
        <mxCell id="8EPMOKXkYQKO1uJK_nMX-16" value="" style="endArrow=none;html=1;rounded=0;exitX=0.25;exitY=0;exitDx=0;exitDy=0;entryX=0.5;entryY=1;entryDx=0;entryDy=0;" parent="1" target="8EPMOKXkYQKO1uJK_nMX-12" edge="1">
          <mxGeometry width="50" height="50" relative="1" as="geometry">
            <mxPoint x="270" y="660" as="sourcePoint" />
            <mxPoint x="250" y="550" as="targetPoint" />
          </mxGeometry>
        </mxCell>
        <mxCell id="8EPMOKXkYQKO1uJK_nMX-15" value="" style="endArrow=none;html=1;rounded=0;exitX=0.25;exitY=0;exitDx=0;exitDy=0;" parent="1" edge="1">
          <mxGeometry width="50" height="50" relative="1" as="geometry">
            <mxPoint x="270" y="660" as="sourcePoint" />
            <mxPoint x="140" y="560" as="targetPoint" />
          </mxGeometry>
        </mxCell>
        <mxCell id="Zfup3dRPuA41YwYEqqXZ-14" value="" style="endArrow=none;html=1;rounded=0;entryX=0.395;entryY=0.992;entryDx=0;entryDy=0;entryPerimeter=0;exitX=1;exitY=0.5;exitDx=0;exitDy=0;" parent="1" source="Zfup3dRPuA41YwYEqqXZ-13" edge="1">
          <mxGeometry relative="1" as="geometry">
            <mxPoint x="-170" y="1623" as="sourcePoint" />
            <mxPoint x="-88" y="1557" as="targetPoint" />
          </mxGeometry>
        </mxCell>
        <mxCell id="8EPMOKXkYQKO1uJK_nMX-10" value="" style="endArrow=none;html=1;rounded=0;exitX=0.405;exitY=0.008;exitDx=0;exitDy=0;exitPerimeter=0;entryX=0.5;entryY=1;entryDx=0;entryDy=0;" parent="1" target="8EPMOKXkYQKO1uJK_nMX-1" edge="1">
          <mxGeometry width="50" height="50" relative="1" as="geometry">
            <mxPoint x="-351" y="660" as="sourcePoint" />
            <mxPoint x="-333" y="540" as="targetPoint" />
          </mxGeometry>
        </mxCell>
        <mxCell id="8EPMOKXkYQKO1uJK_nMX-9" value="" style="endArrow=none;html=1;rounded=0;exitX=0.5;exitY=0;exitDx=0;exitDy=0;" parent="1" source="PGMSWHId7oX6WN4hm_oo-1" edge="1">
          <mxGeometry width="50" height="50" relative="1" as="geometry">
            <mxPoint x="-310" y="620" as="sourcePoint" />
            <mxPoint x="-250" y="560" as="targetPoint" />
          </mxGeometry>
        </mxCell>
        <mxCell id="PGMSWHId7oX6WN4hm_oo-1" value="Admin" style="whiteSpace=wrap;html=1;align=center;" parent="1" vertex="1">
          <mxGeometry x="-410" y="650" width="120" height="40" as="geometry" />
        </mxCell>
        <mxCell id="PGMSWHId7oX6WN4hm_oo-4" value="Student" style="whiteSpace=wrap;html=1;align=center;" parent="1" vertex="1">
          <mxGeometry x="-90" y="970" width="120" height="40" as="geometry" />
        </mxCell>
        <mxCell id="PGMSWHId7oX6WN4hm_oo-5" value="Attendence" style="whiteSpace=wrap;html=1;align=center;" parent="1" vertex="1">
          <mxGeometry x="-90" y="1530" width="120" height="40" as="geometry" />
        </mxCell>
        <mxCell id="PGMSWHId7oX6WN4hm_oo-6" value="Subject" style="whiteSpace=wrap;html=1;align=center;" parent="1" vertex="1">
          <mxGeometry x="-90" y="1220" width="120" height="40" as="geometry" />
        </mxCell>
        <mxCell id="PGMSWHId7oX6WN4hm_oo-12" value="" style="edgeStyle=entityRelationEdgeStyle;fontSize=12;html=1;endArrow=ERzeroToMany;startArrow=ERmandOne;rounded=0;exitX=1;exitY=0.5;exitDx=0;exitDy=0;" parent="1" source="PGMSWHId7oX6WN4hm_oo-1" target="PGMSWHId7oX6WN4hm_oo-2" edge="1">
          <mxGeometry width="100" height="100" relative="1" as="geometry">
            <mxPoint x="-250" y="670" as="sourcePoint" />
            <mxPoint x="230" y="670" as="targetPoint" />
          </mxGeometry>
        </mxCell>
        <mxCell id="PGMSWHId7oX6WN4hm_oo-9" value="Register" style="shape=rhombus;perimeter=rhombusPerimeter;whiteSpace=wrap;html=1;align=center;" parent="1" vertex="1">
          <mxGeometry x="-90" y="640" width="120" height="60" as="geometry" />
        </mxCell>
        <mxCell id="PGMSWHId7oX6WN4hm_oo-15" value="" style="edgeStyle=orthogonalEdgeStyle;fontSize=12;html=1;endArrow=ERzeroToMany;startArrow=ERmandOne;rounded=0;exitX=0.5;exitY=1;exitDx=0;exitDy=0;entryX=0.417;entryY=0.017;entryDx=0;entryDy=0;entryPerimeter=0;" parent="1" source="PGMSWHId7oX6WN4hm_oo-1" target="PGMSWHId7oX6WN4hm_oo-4" edge="1">
          <mxGeometry width="100" height="100" relative="1" as="geometry">
            <mxPoint x="-350" y="710" as="sourcePoint" />
            <mxPoint x="-40" y="940" as="targetPoint" />
            <Array as="points">
              <mxPoint x="-350" y="830" />
              <mxPoint x="-40" y="830" />
            </Array>
          </mxGeometry>
        </mxCell>
        <mxCell id="PGMSWHId7oX6WN4hm_oo-13" value="Register" style="shape=rhombus;perimeter=rhombusPerimeter;whiteSpace=wrap;html=1;align=center;" parent="1" vertex="1">
          <mxGeometry x="-290" y="800" width="120" height="60" as="geometry" />
        </mxCell>
        <mxCell id="PGMSWHId7oX6WN4hm_oo-25" value="" style="edgeStyle=orthogonalEdgeStyle;fontSize=12;html=1;endArrow=ERzeroToMany;startArrow=ERmandOne;rounded=0;" parent="1" source="PGMSWHId7oX6WN4hm_oo-1" target="PGMSWHId7oX6WN4hm_oo-6" edge="1">
          <mxGeometry width="100" height="100" relative="1" as="geometry">
            <mxPoint x="-370" y="710" as="sourcePoint" />
            <mxPoint x="-95" y="1110.7" as="targetPoint" />
            <Array as="points">
              <mxPoint x="-370" y="1240" />
            </Array>
          </mxGeometry>
        </mxCell>
        <mxCell id="PGMSWHId7oX6WN4hm_oo-31" value="Register" style="shape=rhombus;perimeter=rhombusPerimeter;whiteSpace=wrap;html=1;align=center;" parent="1" vertex="1">
          <mxGeometry x="-430" y="958" width="120" height="60" as="geometry" />
        </mxCell>
        <mxCell id="K2vKmcLzeq4-EqoKxUYH-1" value="" style="edgeStyle=orthogonalEdgeStyle;fontSize=12;html=1;endArrow=ERoneToMany;startArrow=ERmandOne;rounded=0;entryX=1;entryY=0.5;entryDx=0;entryDy=0;endFill=0;" parent="1" target="PGMSWHId7oX6WN4hm_oo-6" edge="1">
          <mxGeometry width="100" height="100" relative="1" as="geometry">
            <mxPoint x="310" y="690" as="sourcePoint" />
            <mxPoint x="70" y="1100" as="targetPoint" />
            <Array as="points">
              <mxPoint x="310" y="1240" />
            </Array>
          </mxGeometry>
        </mxCell>
        <mxCell id="PGMSWHId7oX6WN4hm_oo-32" value="has" style="shape=rhombus;perimeter=rhombusPerimeter;whiteSpace=wrap;html=1;align=center;" parent="1" vertex="1">
          <mxGeometry x="250" y="960" width="120" height="60" as="geometry" />
        </mxCell>
        <mxCell id="K2vKmcLzeq4-EqoKxUYH-17" value="" style="edgeStyle=orthogonalEdgeStyle;fontSize=12;html=1;endArrow=ERoneToMany;startArrow=ERmandOne;rounded=0;exitX=1;exitY=0.5;exitDx=0;exitDy=0;entryX=1;entryY=0.5;entryDx=0;entryDy=0;" parent="1" source="PGMSWHId7oX6WN4hm_oo-2" target="PGMSWHId7oX6WN4hm_oo-5" edge="1">
          <mxGeometry width="100" height="100" relative="1" as="geometry">
            <mxPoint x="250" y="1150" as="sourcePoint" />
            <mxPoint x="160" y="1400" as="targetPoint" />
            <Array as="points">
              <mxPoint x="390" y="670" />
              <mxPoint x="390" y="1550" />
            </Array>
          </mxGeometry>
        </mxCell>
        <mxCell id="K2vKmcLzeq4-EqoKxUYH-18" value="Marks" style="shape=rhombus;perimeter=rhombusPerimeter;whiteSpace=wrap;html=1;align=center;" parent="1" vertex="1">
          <mxGeometry x="330" y="1380" width="120" height="60" as="geometry" />
        </mxCell>
        <mxCell id="K2vKmcLzeq4-EqoKxUYH-28" value="std_roll_no" style="ellipse;whiteSpace=wrap;html=1;align=center;" parent="1" vertex="1">
          <mxGeometry x="20" y="1620" width="100" height="40" as="geometry" />
        </mxCell>
        <mxCell id="K2vKmcLzeq4-EqoKxUYH-29" value="attendence_id" style="ellipse;whiteSpace=wrap;html=1;align=center;fontStyle=4;" parent="1" vertex="1">
          <mxGeometry x="-110" y="1640" width="100" height="40" as="geometry" />
        </mxCell>
        <mxCell id="K2vKmcLzeq4-EqoKxUYH-30" value="" style="endArrow=none;html=1;rounded=0;entryX=0.395;entryY=0.992;entryDx=0;entryDy=0;entryPerimeter=0;exitX=0.5;exitY=0;exitDx=0;exitDy=0;" parent="1" source="K2vKmcLzeq4-EqoKxUYH-29" target="PGMSWHId7oX6WN4hm_oo-5" edge="1">
          <mxGeometry relative="1" as="geometry">
            <mxPoint x="-210" y="1600" as="sourcePoint" />
            <mxPoint x="-50" y="1600" as="targetPoint" />
          </mxGeometry>
        </mxCell>
        <mxCell id="K2vKmcLzeq4-EqoKxUYH-31" value="" style="endArrow=none;html=1;rounded=0;entryX=0.64;entryY=0.969;entryDx=0;entryDy=0;entryPerimeter=0;exitX=0;exitY=0;exitDx=0;exitDy=0;" parent="1" source="K2vKmcLzeq4-EqoKxUYH-28" target="PGMSWHId7oX6WN4hm_oo-5" edge="1">
          <mxGeometry relative="1" as="geometry">
            <mxPoint x="-50" y="1650" as="sourcePoint" />
            <mxPoint x="-33" y="1580" as="targetPoint" />
          </mxGeometry>
        </mxCell>
        <mxCell id="K2vKmcLzeq4-EqoKxUYH-32" value="" style="edgeStyle=orthogonalEdgeStyle;fontSize=12;html=1;endArrow=ERzeroToMany;startArrow=ERmandOne;rounded=0;exitX=0;exitY=0.5;exitDx=0;exitDy=0;" parent="1" source="PGMSWHId7oX6WN4hm_oo-1" edge="1">
          <mxGeometry width="100" height="100" relative="1" as="geometry">
            <mxPoint x="-510" y="670" as="sourcePoint" />
            <mxPoint x="-90" y="1550" as="targetPoint" />
            <Array as="points">
              <mxPoint x="-490" y="670" />
              <mxPoint x="-490" y="1550" />
            </Array>
          </mxGeometry>
        </mxCell>
        <mxCell id="K2vKmcLzeq4-EqoKxUYH-38" value="" style="edgeStyle=orthogonalEdgeStyle;fontSize=12;html=1;endArrow=ERmandOne;rounded=0;entryX=0;entryY=0.5;entryDx=0;entryDy=0;exitX=0.092;exitY=0.569;exitDx=0;exitDy=0;exitPerimeter=0;" parent="1" source="K2vKmcLzeq4-EqoKxUYH-21" target="PGMSWHId7oX6WN4hm_oo-4" edge="1">
          <mxGeometry width="100" height="100" relative="1" as="geometry">
            <mxPoint x="-240" y="1400" as="sourcePoint" />
            <mxPoint x="-290" y="1150" as="targetPoint" />
            <Array as="points">
              <mxPoint x="-79" y="1410" />
              <mxPoint x="-250" y="1410" />
              <mxPoint x="-250" y="990" />
            </Array>
          </mxGeometry>
        </mxCell>
        <mxCell id="Zfup3dRPuA41YwYEqqXZ-6" value="" style="edgeStyle=orthogonalEdgeStyle;fontSize=12;html=1;endArrow=ERoneToMany;startArrow=ERmandOne;rounded=0;exitX=0.25;exitY=1;exitDx=0;exitDy=0;" parent="1" source="PGMSWHId7oX6WN4hm_oo-2" target="PGMSWHId7oX6WN4hm_oo-4" edge="1">
          <mxGeometry width="100" height="100" relative="1" as="geometry">
            <mxPoint x="120" y="1020" as="sourcePoint" />
            <mxPoint y="940" as="targetPoint" />
            <Array as="points">
              <mxPoint x="260" y="830" />
              <mxPoint y="830" />
            </Array>
          </mxGeometry>
        </mxCell>
        <mxCell id="PGMSWHId7oX6WN4hm_oo-14" value="has" style="shape=rhombus;perimeter=rhombusPerimeter;whiteSpace=wrap;html=1;align=center;" parent="1" vertex="1">
          <mxGeometry x="70" y="800" width="120" height="60" as="geometry" />
        </mxCell>
        <mxCell id="Zfup3dRPuA41YwYEqqXZ-7" value="" style="fontSize=12;html=1;endArrow=ERoneToMany;startArrow=ERmandOne;rounded=0;entryX=0.5;entryY=0;entryDx=0;entryDy=0;exitX=0.5;exitY=1;exitDx=0;exitDy=0;" parent="1" source="PGMSWHId7oX6WN4hm_oo-4" target="PGMSWHId7oX6WN4hm_oo-6" edge="1">
          <mxGeometry width="100" height="100" relative="1" as="geometry">
            <mxPoint x="-40" y="1040" as="sourcePoint" />
            <mxPoint x="-10" y="1040" as="targetPoint" />
          </mxGeometry>
        </mxCell>
        <mxCell id="K2vKmcLzeq4-EqoKxUYH-6" value="Enroll" style="shape=rhombus;perimeter=rhombusPerimeter;whiteSpace=wrap;html=1;align=center;" parent="1" vertex="1">
          <mxGeometry x="-90" y="1090" width="120" height="60" as="geometry" />
        </mxCell>
        <mxCell id="Zfup3dRPuA41YwYEqqXZ-8" value="" style="fontSize=12;html=1;endArrow=ERoneToMany;startArrow=ERmandOne;rounded=0;exitX=0.5;exitY=1;exitDx=0;exitDy=0;entryX=0.5;entryY=0;entryDx=0;entryDy=0;" parent="1" source="PGMSWHId7oX6WN4hm_oo-6" target="PGMSWHId7oX6WN4hm_oo-5" edge="1">
          <mxGeometry width="100" height="100" relative="1" as="geometry">
            <mxPoint x="-40" y="1360" as="sourcePoint" />
            <mxPoint x="-20" y="1510" as="targetPoint" />
          </mxGeometry>
        </mxCell>
        <mxCell id="K2vKmcLzeq4-EqoKxUYH-21" value="has" style="shape=rhombus;perimeter=rhombusPerimeter;whiteSpace=wrap;html=1;align=center;" parent="1" vertex="1">
          <mxGeometry x="-90" y="1380" width="120" height="60" as="geometry" />
        </mxCell>
        <mxCell id="Zfup3dRPuA41YwYEqqXZ-9" value="Subject_id" style="ellipse;whiteSpace=wrap;html=1;align=center;" parent="1" vertex="1">
          <mxGeometry x="-240" y="1630" width="100" height="40" as="geometry" />
        </mxCell>
        <mxCell id="Zfup3dRPuA41YwYEqqXZ-10" value="" style="endArrow=none;html=1;rounded=0;entryX=0.395;entryY=0.992;entryDx=0;entryDy=0;entryPerimeter=0;exitX=1;exitY=0;exitDx=0;exitDy=0;" parent="1" source="Zfup3dRPuA41YwYEqqXZ-9" edge="1">
          <mxGeometry relative="1" as="geometry">
            <mxPoint x="-90" y="1640" as="sourcePoint" />
            <mxPoint x="-73" y="1570" as="targetPoint" />
          </mxGeometry>
        </mxCell>
        <mxCell id="Zfup3dRPuA41YwYEqqXZ-13" value="date_time" style="ellipse;whiteSpace=wrap;html=1;align=center;" parent="1" vertex="1">
          <mxGeometry x="-280" y="1570" width="100" height="40" as="geometry" />
        </mxCell>
        <mxCell id="Zfup3dRPuA41YwYEqqXZ-16" value="status(L,P, or A)" style="ellipse;whiteSpace=wrap;html=1;align=center;" parent="1" vertex="1">
          <mxGeometry x="90" y="1570" width="100" height="40" as="geometry" />
        </mxCell>
        <mxCell id="Zfup3dRPuA41YwYEqqXZ-17" value="" style="endArrow=none;html=1;rounded=0;exitX=1;exitY=0.5;exitDx=0;exitDy=0;" parent="1" target="Zfup3dRPuA41YwYEqqXZ-16" edge="1">
          <mxGeometry relative="1" as="geometry">
            <mxPoint x="30" y="1566.5" as="sourcePoint" />
            <mxPoint x="122" y="1533.5" as="targetPoint" />
          </mxGeometry>
        </mxCell>
        <mxCell id="Zfup3dRPuA41YwYEqqXZ-21" value="View" style="shape=rhombus;perimeter=rhombusPerimeter;whiteSpace=wrap;html=1;align=center;" parent="1" vertex="1">
          <mxGeometry x="-550" y="1380" width="120" height="60" as="geometry" />
        </mxCell>
        <mxCell id="8EPMOKXkYQKO1uJK_nMX-1" value="admin_name" style="ellipse;whiteSpace=wrap;html=1;align=center;" parent="1" vertex="1">
          <mxGeometry x="-490" y="530" width="100" height="40" as="geometry" />
        </mxCell>
        <mxCell id="8EPMOKXkYQKO1uJK_nMX-2" value="admin_id" style="ellipse;whiteSpace=wrap;html=1;align=center;fontStyle=4;" parent="1" vertex="1">
          <mxGeometry x="-390" y="490" width="100" height="40" as="geometry" />
        </mxCell>
        <mxCell id="8EPMOKXkYQKO1uJK_nMX-4" style="edgeStyle=orthogonalEdgeStyle;rounded=0;orthogonalLoop=1;jettySize=auto;html=1;exitX=0;exitY=1;exitDx=0;exitDy=0;" parent="1" source="8EPMOKXkYQKO1uJK_nMX-3" edge="1">
          <mxGeometry relative="1" as="geometry">
            <mxPoint x="-260" y="560" as="targetPoint" />
          </mxGeometry>
        </mxCell>
        <mxCell id="8EPMOKXkYQKO1uJK_nMX-3" value="admin_email" style="ellipse;whiteSpace=wrap;html=1;align=center;" parent="1" vertex="1">
          <mxGeometry x="-290" y="530" width="100" height="40" as="geometry" />
        </mxCell>
        <mxCell id="8EPMOKXkYQKO1uJK_nMX-5" value="" style="endArrow=none;html=1;rounded=0;exitX=0.5;exitY=0;exitDx=0;exitDy=0;" parent="1" source="PGMSWHId7oX6WN4hm_oo-1" edge="1">
          <mxGeometry width="50" height="50" relative="1" as="geometry">
            <mxPoint x="-350" y="640" as="sourcePoint" />
            <mxPoint x="-340.82197352736284" y="529.642951273319" as="targetPoint" />
          </mxGeometry>
        </mxCell>
        <mxCell id="8EPMOKXkYQKO1uJK_nMX-11" value="teacher_id" style="ellipse;whiteSpace=wrap;html=1;align=center;fontStyle=4;" parent="1" vertex="1">
          <mxGeometry x="190" y="500" width="100" height="40" as="geometry" />
        </mxCell>
        <mxCell id="8EPMOKXkYQKO1uJK_nMX-12" value="teacher_name" style="ellipse;whiteSpace=wrap;html=1;align=center;" parent="1" vertex="1">
          <mxGeometry x="300" y="500" width="100" height="40" as="geometry" />
        </mxCell>
        <mxCell id="8EPMOKXkYQKO1uJK_nMX-13" value="" style="endArrow=none;html=1;rounded=0;exitX=0.25;exitY=0;exitDx=0;exitDy=0;" parent="1" source="PGMSWHId7oX6WN4hm_oo-2" edge="1">
          <mxGeometry width="50" height="50" relative="1" as="geometry">
            <mxPoint x="260" y="640" as="sourcePoint" />
            <mxPoint x="240" y="540" as="targetPoint" />
          </mxGeometry>
        </mxCell>
        <mxCell id="8EPMOKXkYQKO1uJK_nMX-14" value="teacher_email" style="ellipse;whiteSpace=wrap;html=1;align=center;" parent="1" vertex="1">
          <mxGeometry x="90" y="520" width="100" height="40" as="geometry" />
        </mxCell>
        <mxCell id="8EPMOKXkYQKO1uJK_nMX-17" value="total_courses" style="ellipse;whiteSpace=wrap;html=1;align=center;" parent="1" vertex="1">
          <mxGeometry x="390" y="530" width="100" height="40" as="geometry" />
        </mxCell>
        <mxCell id="8EPMOKXkYQKO1uJK_nMX-18" value="total_crediHours" style="ellipse;whiteSpace=wrap;html=1;align=center;" parent="1" vertex="1">
          <mxGeometry x="410" y="590" width="100" height="40" as="geometry" />
        </mxCell>
        <mxCell id="8EPMOKXkYQKO1uJK_nMX-21" value="subject_id" style="ellipse;whiteSpace=wrap;html=1;align=center;fontStyle=4;" parent="1" vertex="1">
          <mxGeometry x="80" y="1170" width="100" height="40" as="geometry" />
        </mxCell>
        <mxCell id="8EPMOKXkYQKO1uJK_nMX-22" value="subject_name" style="ellipse;whiteSpace=wrap;html=1;align=center;" parent="1" vertex="1">
          <mxGeometry x="60" y="1250" width="100" height="40" as="geometry" />
        </mxCell>
        <mxCell id="8EPMOKXkYQKO1uJK_nMX-23" value="dep_name" style="ellipse;whiteSpace=wrap;html=1;align=center;" parent="1" vertex="1">
          <mxGeometry x="80" y="1300" width="100" height="40" as="geometry" />
        </mxCell>
        <mxCell id="8EPMOKXkYQKO1uJK_nMX-24" value="crdit_hours" style="ellipse;whiteSpace=wrap;html=1;align=center;" parent="1" vertex="1">
          <mxGeometry x="-20" y="1330" width="100" height="40" as="geometry" />
        </mxCell>
        <mxCell id="8EPMOKXkYQKO1uJK_nMX-25" value="batch" style="ellipse;whiteSpace=wrap;html=1;align=center;" parent="1" vertex="1">
          <mxGeometry x="-160" y="1310" width="100" height="40" as="geometry" />
        </mxCell>
        <mxCell id="8EPMOKXkYQKO1uJK_nMX-26" value="percentage_req" style="ellipse;whiteSpace=wrap;html=1;align=center;" parent="1" vertex="1">
          <mxGeometry x="-150" y="1140" width="100" height="40" as="geometry" />
        </mxCell>
        <mxCell id="8EPMOKXkYQKO1uJK_nMX-27" value="total_classes" style="ellipse;whiteSpace=wrap;html=1;align=center;" parent="1" vertex="1">
          <mxGeometry x="-200" y="1250" width="100" height="40" as="geometry" />
        </mxCell>
        <mxCell id="8EPMOKXkYQKO1uJK_nMX-29" value="" style="endArrow=none;html=1;rounded=0;" parent="1" source="PGMSWHId7oX6WN4hm_oo-6" target="8EPMOKXkYQKO1uJK_nMX-25" edge="1">
          <mxGeometry relative="1" as="geometry">
            <mxPoint x="-86" y="1275.5" as="sourcePoint" />
            <mxPoint x="-20" y="1290" as="targetPoint" />
          </mxGeometry>
        </mxCell>
        <mxCell id="8EPMOKXkYQKO1uJK_nMX-31" value="" style="endArrow=none;html=1;rounded=0;" parent="1" source="8EPMOKXkYQKO1uJK_nMX-26" target="PGMSWHId7oX6WN4hm_oo-6" edge="1">
          <mxGeometry relative="1" as="geometry">
            <mxPoint x="-75" y="1180" as="sourcePoint" />
            <mxPoint x="-120" y="1231" as="targetPoint" />
          </mxGeometry>
        </mxCell>
        <mxCell id="8EPMOKXkYQKO1uJK_nMX-33" value="" style="endArrow=none;html=1;rounded=0;exitX=0.75;exitY=1;exitDx=0;exitDy=0;" parent="1" source="PGMSWHId7oX6WN4hm_oo-6" target="8EPMOKXkYQKO1uJK_nMX-24" edge="1">
          <mxGeometry relative="1" as="geometry">
            <mxPoint x="-8" y="1300" as="sourcePoint" />
            <mxPoint x="-53" y="1351" as="targetPoint" />
          </mxGeometry>
        </mxCell>
        <mxCell id="8EPMOKXkYQKO1uJK_nMX-34" value="" style="endArrow=none;html=1;rounded=0;exitX=0.75;exitY=1;exitDx=0;exitDy=0;" parent="1" source="PGMSWHId7oX6WN4hm_oo-6" target="8EPMOKXkYQKO1uJK_nMX-23" edge="1">
          <mxGeometry relative="1" as="geometry">
            <mxPoint x="10" y="1270" as="sourcePoint" />
            <mxPoint x="33" y="1340" as="targetPoint" />
          </mxGeometry>
        </mxCell>
        <mxCell id="8EPMOKXkYQKO1uJK_nMX-35" value="" style="endArrow=none;html=1;rounded=0;exitX=0.75;exitY=1;exitDx=0;exitDy=0;" parent="1" source="PGMSWHId7oX6WN4hm_oo-6" target="8EPMOKXkYQKO1uJK_nMX-22" edge="1">
          <mxGeometry relative="1" as="geometry">
            <mxPoint x="20" y="1240" as="sourcePoint" />
            <mxPoint x="43" y="1310" as="targetPoint" />
          </mxGeometry>
        </mxCell>
        <mxCell id="8EPMOKXkYQKO1uJK_nMX-36" value="std_roll_no" style="ellipse;whiteSpace=wrap;html=1;align=center;fontStyle=4;" parent="1" vertex="1">
          <mxGeometry x="40" y="880" width="100" height="40" as="geometry" />
        </mxCell>
        <mxCell id="8EPMOKXkYQKO1uJK_nMX-37" value="std_name" style="ellipse;whiteSpace=wrap;html=1;align=center;" parent="1" vertex="1">
          <mxGeometry x="90" y="940" width="100" height="40" as="geometry" />
        </mxCell>
        <mxCell id="8EPMOKXkYQKO1uJK_nMX-38" value="subject_id" style="ellipse;whiteSpace=wrap;html=1;align=center;" parent="1" vertex="1">
          <mxGeometry x="80" y="1010" width="100" height="40" as="geometry" />
        </mxCell>
        <mxCell id="8EPMOKXkYQKO1uJK_nMX-40" value="total_present" style="ellipse;whiteSpace=wrap;html=1;align=center;" parent="1" vertex="1">
          <mxGeometry x="-170" y="860" width="100" height="40" as="geometry" />
        </mxCell>
        <mxCell id="8EPMOKXkYQKO1uJK_nMX-41" value="total_absent" style="ellipse;whiteSpace=wrap;html=1;align=center;" parent="1" vertex="1">
          <mxGeometry x="-220" y="910" width="100" height="40" as="geometry" />
        </mxCell>
        <mxCell id="8EPMOKXkYQKO1uJK_nMX-42" value="total_leave" style="ellipse;whiteSpace=wrap;html=1;align=center;" parent="1" vertex="1">
          <mxGeometry x="-180" y="1018" width="100" height="40" as="geometry" />
        </mxCell>
        <mxCell id="8EPMOKXkYQKO1uJK_nMX-49" value="" style="endArrow=none;html=1;rounded=0;exitX=1;exitY=1;exitDx=0;exitDy=0;entryX=0.25;entryY=0;entryDx=0;entryDy=0;" parent="1" source="8EPMOKXkYQKO1uJK_nMX-41" target="PGMSWHId7oX6WN4hm_oo-4" edge="1">
          <mxGeometry relative="1" as="geometry">
            <mxPoint x="-90" y="920" as="sourcePoint" />
            <mxPoint x="-82.5" y="981" as="targetPoint" />
          </mxGeometry>
        </mxCell>
        <mxCell id="8EPMOKXkYQKO1uJK_nMX-51" value="attend_percntg" style="ellipse;whiteSpace=wrap;html=1;align=center;" parent="1" vertex="1">
          <mxGeometry x="-10" y="1040" width="100" height="40" as="geometry" />
        </mxCell>
        <mxCell id="8EPMOKXkYQKO1uJK_nMX-52" value="" style="endArrow=none;html=1;rounded=0;entryX=0.75;entryY=1;entryDx=0;entryDy=0;" parent="1" source="8EPMOKXkYQKO1uJK_nMX-51" target="PGMSWHId7oX6WN4hm_oo-4" edge="1">
          <mxGeometry relative="1" as="geometry">
            <mxPoint x="105" y="1040" as="sourcePoint" />
            <mxPoint x="35" y="1001" as="targetPoint" />
          </mxGeometry>
        </mxCell>
        <mxCell id="8EPMOKXkYQKO1uJK_nMX-53" value="teacher_id" style="ellipse;whiteSpace=wrap;html=1;align=center;" parent="1" vertex="1">
          <mxGeometry x="-210" y="1180" width="100" height="40" as="geometry" />
        </mxCell>
        <mxCell id="x2ZdGeCnN24oB9wIgB-1-1" value="admin_id" style="ellipse;whiteSpace=wrap;html=1;align=center;" parent="1" vertex="1">
          <mxGeometry x="60" y="570" width="100" height="40" as="geometry" />
        </mxCell>
        <mxCell id="x2ZdGeCnN24oB9wIgB-1-3" value="admin_id" style="ellipse;whiteSpace=wrap;html=1;align=center;" parent="1" vertex="1">
          <mxGeometry x="30" y="1120" width="100" height="40" as="geometry" />
        </mxCell>
        <mxCell id="KuOeL_wX9S6xzsZXIeHA-1" value="" style="fontSize=12;html=1;endArrow=ERmandOne;startArrow=ERmandOne;rounded=0;edgeStyle=orthogonalEdgeStyle;entryX=1;entryY=0.5;entryDx=0;entryDy=0;endFill=0;" edge="1" parent="1" target="KuOeL_wX9S6xzsZXIeHA-2">
          <mxGeometry width="100" height="100" relative="1" as="geometry">
            <mxPoint x="237" y="690" as="sourcePoint" />
            <mxPoint x="-100" y="720" as="targetPoint" />
            <Array as="points">
              <mxPoint x="237" y="750" />
            </Array>
          </mxGeometry>
        </mxCell>
        <mxCell id="KuOeL_wX9S6xzsZXIeHA-2" value="Login" style="whiteSpace=wrap;html=1;align=center;" vertex="1" parent="1">
          <mxGeometry x="-110" y="730" width="120" height="40" as="geometry" />
        </mxCell>
        <mxCell id="KuOeL_wX9S6xzsZXIeHA-3" value="has" style="shape=rhombus;perimeter=rhombusPerimeter;whiteSpace=wrap;html=1;align=center;" vertex="1" parent="1">
          <mxGeometry x="70" y="720" width="120" height="60" as="geometry" />
        </mxCell>
        <mxCell id="KuOeL_wX9S6xzsZXIeHA-4" value="login_status" style="ellipse;whiteSpace=wrap;html=1;align=center;" vertex="1" parent="1">
          <mxGeometry x="50" y="620" width="100" height="40" as="geometry" />
        </mxCell>
        <mxCell id="KuOeL_wX9S6xzsZXIeHA-5" value="" style="endArrow=none;html=1;rounded=0;exitX=0.5;exitY=0;exitDx=0;exitDy=0;entryX=1;entryY=0.5;entryDx=0;entryDy=0;" edge="1" parent="1" source="PGMSWHId7oX6WN4hm_oo-2" target="KuOeL_wX9S6xzsZXIeHA-4">
          <mxGeometry width="50" height="50" relative="1" as="geometry">
            <mxPoint x="290" y="680" as="sourcePoint" />
            <mxPoint x="152" y="615" as="targetPoint" />
            <Array as="points">
              <mxPoint x="270" y="650" />
            </Array>
          </mxGeometry>
        </mxCell>
        <mxCell id="PGMSWHId7oX6WN4hm_oo-2" value="Teacher" style="whiteSpace=wrap;html=1;align=center;" parent="1" vertex="1">
          <mxGeometry x="230" y="650" width="120" height="40" as="geometry" />
        </mxCell>
        <mxCell id="KuOeL_wX9S6xzsZXIeHA-7" value="control" style="ellipse;whiteSpace=wrap;html=1;align=center;" vertex="1" parent="1">
          <mxGeometry x="450" y="640" width="100" height="40" as="geometry" />
        </mxCell>
      </root>
    </mxGraphModel>
  </diagram>
</mxfile>
